<svg width="45" height="45" viewBox="0 0 45 45" fill="none" xmlns="http://www.w3.org/2000/svg">
<path d="M22.506 14.9968C26.6375 14.9968 30.0091 18.3685 30.0091 22.5C30.0091 26.6315 26.6375 30.0032 22.506 30.0032C18.3746 30.0032 15.003 26.6315 15.003 22.5C15.003 18.3685 18.3746 14.9968 22.506 14.9968ZM0.00251007 22.5C0.00251007 19.3929 -0.0256348 16.3139 0.148857 13.2125C0.323345 9.61004 1.14513 6.41288 3.77937 3.7786C6.41923 1.13869 9.6107 0.322516 13.2131 0.148023C16.3201 -0.0264698 19.399 0.00167425 22.5004 0.00167425C25.6075 0.00167425 28.6864 -0.0264698 31.7878 0.148023C35.3901 0.322516 38.5872 1.14432 41.2215 3.7786C43.8613 6.41851 44.6775 9.61004 44.852 13.2125C45.0265 16.3196 44.9983 19.3985 44.9983 22.5C44.9983 25.6015 45.0265 28.6861 44.852 31.7875C44.6775 35.39 43.8557 38.5871 41.2215 41.2214C38.5816 43.8613 35.3901 44.6775 31.7878 44.852C28.6807 45.0265 25.6018 44.9983 22.5004 44.9983C19.3934 44.9983 16.3145 45.0265 13.2131 44.852C9.6107 44.6775 6.4136 43.8557 3.77937 41.2214C1.13951 38.5815 0.323345 35.39 0.148857 31.7875C-0.0312614 28.6861 0.00251007 25.6071 0.00251007 22.5ZM22.506 34.0447C28.8946 34.0447 34.0505 28.8887 34.0505 22.5C34.0505 16.1113 28.8946 10.9553 22.506 10.9553C16.1175 10.9553 10.9616 16.1113 10.9616 22.5C10.9616 28.8887 16.1175 34.0447 22.506 34.0447ZM10.4888 13.1787C11.9804 13.1787 13.1849 11.9741 13.1849 10.4825C13.1849 8.99087 11.9804 7.78631 10.4888 7.78631C8.99717 7.78631 7.79263 8.99087 7.79263 10.4825C7.79218 10.8367 7.86162 11.1875 7.99696 11.5148C8.13229 11.8421 8.33087 12.1395 8.58132 12.39C8.83177 12.6404 9.12917 12.839 9.45648 12.9744C9.78379 13.1097 10.1346 13.1791 10.4888 13.1787Z" fill="white"/>
</svg>
