<svg width="132" height="114" viewBox="0 0 132 114" fill="none" xmlns="http://www.w3.org/2000/svg">
<path d="M66 0.75C29.7598 0.75 0.375 25.9369 0.375 57C0.375 88.0631 29.7598 113.25 66 113.25C102.24 113.25 131.625 88.0631 131.625 57C131.625 25.9369 102.24 0.75 66 0.75ZM87.1084 57.8664L55.1162 77.8175C54.9408 77.9255 54.7341 77.99 54.5187 78.0039C54.3033 78.0178 54.0877 77.9805 53.8954 77.8962C53.7032 77.8118 53.5417 77.6837 53.4289 77.5258C53.3161 77.368 53.2562 77.1865 53.2559 77.0014V37.1242C53.2551 36.9387 53.3144 36.7566 53.427 36.5982C53.5396 36.4398 53.7012 36.3112 53.8938 36.2267C54.0865 36.1422 54.3026 36.1051 54.5184 36.1194C54.7342 36.1338 54.9411 36.1991 55.1162 36.308L87.1084 56.2467C87.2595 56.3383 87.3828 56.4596 87.4679 56.6005C87.553 56.7415 87.5974 56.8978 87.5974 57.0565C87.5974 57.2152 87.553 57.3715 87.4679 57.5124C87.3828 57.6534 87.2595 57.7747 87.1084 57.8664Z" fill="#F9B403"/>
</svg>
