<svg width="35" height="35" viewBox="0 0 35 35" fill="none" xmlns="http://www.w3.org/2000/svg">
<path d="M17.5047 11.6642C20.7181 11.6642 23.3404 14.2866 23.3404 17.5C23.3404 20.7134 20.7181 23.3358 17.5047 23.3358C14.2913 23.3358 11.669 20.7134 11.669 17.5C11.669 14.2866 14.2913 11.6642 17.5047 11.6642ZM0.00195312 17.5C0.00195312 15.0834 -0.0199394 12.6886 0.115776 10.2764C0.251492 7.47448 0.890659 4.9878 2.93951 2.93891C4.99273 0.885649 7.47499 0.250846 10.2768 0.115129C12.6934 -0.0205877 15.0881 0.0013022 17.5003 0.0013022C19.9169 0.0013022 22.3116 -0.0205877 24.7238 0.115129C27.5257 0.250846 30.0123 0.890027 32.0611 2.93891C34.1144 4.99217 34.7492 7.47448 34.8849 10.2764C35.0206 12.693 34.9987 15.0877 34.9987 17.5C34.9987 19.9123 35.0206 22.3114 34.8849 24.7236C34.7492 27.5255 34.11 30.0122 32.0611 32.0611C30.0079 34.1143 27.5257 34.7492 24.7238 34.8849C22.3072 35.0206 19.9125 34.9987 17.5003 34.9987C15.0837 34.9987 12.689 35.0206 10.2768 34.8849C7.47499 34.7492 4.98835 34.11 2.93951 32.0611C0.886284 30.0078 0.251492 27.5255 0.115776 24.7236C-0.0243149 22.3114 0.00195312 19.9166 0.00195312 17.5ZM17.5047 26.4792C22.4736 26.4792 26.4837 22.469 26.4837 17.5C26.4837 12.531 22.4736 8.52081 17.5047 8.52081C12.5358 8.52081 8.52568 12.531 8.52568 17.5C8.52568 22.469 12.5358 26.4792 17.5047 26.4792ZM8.15794 10.2501C9.31807 10.2501 10.2549 9.31322 10.2549 8.15306C10.2549 6.9929 9.31807 6.05602 8.15794 6.05602C6.9978 6.05602 6.06093 6.9929 6.06093 8.15306C6.06059 8.42854 6.11459 8.70139 6.21985 8.95597C6.32512 9.21055 6.47957 9.44187 6.67436 9.63666C6.86915 9.83146 7.10046 9.98592 7.35504 10.0912C7.60961 10.1964 7.88246 10.2504 8.15794 10.2501Z" fill="#F9F4F1"/>
</svg>
