<svg width="38" height="39" viewBox="0 0 38 39" fill="none" xmlns="http://www.w3.org/2000/svg">
<path d="M0.70627 2.97593C0.560995 2.82972 0.445758 2.65615 0.367135 2.46512C0.288513 2.2741 0.248047 2.06935 0.248047 1.86259C0.248047 1.65582 0.288513 1.45108 0.367135 1.26005C0.445758 1.06902 0.560995 0.895453 0.70627 0.749247C0.851545 0.603041 1.02401 0.487064 1.21382 0.407938C1.40363 0.328812 1.60707 0.288086 1.81252 0.288086C2.01797 0.288086 2.22141 0.328812 2.41122 0.407938C2.60103 0.487064 2.7735 0.603041 2.91877 0.749247L19 16.9367L35.0813 0.749247C35.2265 0.603041 35.399 0.487064 35.5888 0.407938C35.7786 0.328812 35.9821 0.288086 36.1875 0.288086C36.393 0.288086 36.5964 0.328812 36.7862 0.407938C36.976 0.487064 37.1485 0.603041 37.2938 0.749247C37.439 0.895453 37.5543 1.06902 37.6329 1.26005C37.7115 1.45108 37.752 1.65582 37.752 1.86259C37.752 2.06935 37.7115 2.2741 37.6329 2.46512C37.5543 2.65615 37.439 2.82972 37.2938 2.97593L21.2094 19.1603L37.2938 35.3446C37.439 35.4908 37.5543 35.6644 37.6329 35.8554C37.7115 36.0464 37.752 36.2512 37.752 36.4579C37.752 36.6647 37.7115 36.8694 37.6329 37.0605C37.5543 37.2515 37.439 37.4251 37.2938 37.5713C37.1485 37.7175 36.976 37.8335 36.7862 37.9126C36.5964 37.9917 36.393 38.0324 36.1875 38.0324C35.9821 38.0324 35.7786 37.9917 35.5888 37.9126C35.399 37.8335 35.2265 37.7175 35.0813 37.5713L19 21.3838L2.91877 37.5713C2.7735 37.7175 2.60103 37.8335 2.41122 37.9126C2.22141 37.9917 2.01797 38.0324 1.81252 38.0324C1.60707 38.0324 1.40363 37.9917 1.21382 37.9126C1.02401 37.8335 0.851545 37.7175 0.70627 37.5713C0.560995 37.4251 0.445758 37.2515 0.367135 37.0605C0.288513 36.8694 0.248047 36.6647 0.248047 36.4579C0.248047 36.2512 0.288513 36.0464 0.367135 35.8554C0.445758 35.6644 0.560995 35.4908 0.70627 35.3446L16.7906 19.1603L0.70627 2.97593Z" fill="black"/>
</svg>
