<svg width="35" height="35" viewBox="0 0 35 35" fill="none" xmlns="http://www.w3.org/2000/svg">
<g clip-path="url(#clip0_1_812)">
<path d="M34.2698 9.48945C34.0716 8.78249 33.6856 8.14245 33.1527 7.63736C32.6048 7.11674 31.9332 6.74433 31.2014 6.55528C28.4627 5.8334 17.4902 5.8334 17.4902 5.8334C12.9159 5.78136 8.3427 6.01026 3.79645 6.51882C3.06464 6.72184 2.39435 7.10257 1.8452 7.62715C1.30561 8.14632 0.91478 8.78653 0.710614 9.48799C0.220166 12.1301 -0.0181272 14.8129 -0.00105307 17.5001C-0.0185531 20.1849 0.219155 22.8667 0.710614 25.5122C0.910405 26.2107 1.29978 26.848 1.84082 27.3628C2.38186 27.8776 3.05561 28.2494 3.79645 28.4463C6.57166 29.1667 17.4902 29.1667 17.4902 29.1667C22.0703 29.2189 26.6493 28.99 31.2014 28.4813C31.9332 28.2923 32.6048 27.9199 33.1527 27.3992C33.6854 26.8943 34.071 26.2541 34.2683 25.5472C34.7716 22.906 35.0163 20.2222 34.999 17.5336C35.0368 14.8337 34.7924 12.1371 34.2698 9.48799V9.48945ZM14.0019 22.4934V12.5082L23.131 17.5015L14.0019 22.4934Z" fill="#F9F4F1"/>
</g>
<defs>
<clipPath id="clip0_1_812">
<rect width="35" height="35" fill="white"/>
</clipPath>
</defs>
</svg>
